<?xml version="1.0" encoding="utf-8"?>
<!-- Generator: Adobe Illustrator 25.2.3, SVG Export Plug-In . SVG Version: 6.00 Build 0)  -->
<svg version="1.1" id="Capa_1" xmlns="http://www.w3.org/2000/svg" xmlns:xlink="http://www.w3.org/1999/xlink" x="0px" y="0px"
	 viewBox="0 0 607.9 365.8" style="enable-background:new 0 0 607.9 365.8;" xml:space="preserve">
<style type="text/css">
	.st0{fill:#EBD800;}
	.st1{fill:#FFFFFF;}
</style>
<g>
	<path class="st0" d="M299.1,186.3v0.2h23.4v-0.2H299.1z M272.7,186.5h23.4v-0.2h-23.4V186.5z"/>
	<path class="st0" d="M355.6,24.8H239.5c-2.2,0-3.9,1.7-3.9,3.9v172.5c0,2.2,1.7,3.9,3.9,3.9h116.1c2.1,0,3.9-1.7,3.9-3.9V28.7
		C359.5,26.5,357.8,24.8,355.6,24.8z M272.7,150.5h2.1v-7.6c0-5.3,4.3-9.6,9.6-9.6c5.3,0,9.6,4.3,9.6,9.6v7.6h2.1v36h-23.4V150.5z
		 M277.9,104.4c0-3,2.4-5.4,5.4-5.4s5.4,2.4,5.4,5.4c0,1.3-0.4,2.4-1.2,3.4v0.5l1.2,1.3v7.9h-10.8v-7.9l1.2-1.3v-0.5
		C278.4,106.8,277.9,105.7,277.9,104.4z M292.1,104.4c0-3,2.4-5.4,5.4-5.4s5.4,2.4,5.4,5.4c0,1.3-0.4,2.4-1.2,3.4v0.5l1.2,1.3v7.9
		h-10.8v-7.9l1.2-1.3v-0.5C292.6,106.8,292.1,105.7,292.1,104.4z M306.3,104.4c0-3,2.4-5.4,5.4-5.4s5.4,2.4,5.4,5.4
		c0,1.3-0.4,2.4-1.2,3.4v0.5l1.2,1.3v7.9h-10.8v-7.9l1.2-1.3v-0.5C306.8,106.8,306.3,105.7,306.3,104.4z M322.5,186.5h-23.4v-36h2.1
		v-7.6c0-5.3,4.3-9.6,9.6-9.6s9.6,4.3,9.6,9.6v7.6h2.1C322.5,150.5,322.5,186.5,322.5,186.5z M347,186.3h-12.2l-3-36.9
		c-0.3-1.9-2.4-3.4-5.1-4v-7.5c3.4-6.3,5.1-13.9,5.1-22.2c0-8.7-1.9-18.9-8.4-26.3C313.7,78.5,297.6,72,297.6,72
		s-16.1,6.4-25.8,17.4c-6.5,7.3-8.4,17.5-8.4,26.3c0,8.3,1.7,15.9,5.1,22.2v7.5c-2.7,0.7-4.8,2.2-5.1,4l-3,36.9h-12.3V43.6H347
		V186.3z"/>
</g>
<g>
	<g>
		<path class="st1" d="M61.5,283.2c8.9,2.3,13.3,6.7,13.3,13.4c0,2-0.5,3.9-1.6,5.7c-1,1.8-2.5,3.3-4.3,4.7
			c-1.8,1.3-3.9,2.4-6.4,3.1c-2.5,0.8-5.1,1.2-7.9,1.2H26.9v-4.4h4.6V263h-4.6v-4.4h24.7c6.6,0,11.8,1,15.4,3.1
			c3.6,2.1,5.4,5.4,5.4,10c0,2.3-0.9,4.5-2.6,6.6C68,280.3,65.2,281.9,61.5,283.2z M44.5,281.5h5.6c3,0,5.4-0.8,7.2-2.3
			c1.9-1.5,2.8-3.8,2.8-6.7c0-2.7-0.9-4.9-2.7-6.7c-1.8-1.8-4.3-2.7-7.4-2.7h-5.6L44.5,281.5L44.5,281.5z M50.3,306.9
			c3.6,0,6.2-0.9,7.8-2.7c1.7-1.8,2.5-4.1,2.5-6.8c0-3.5-0.9-6.2-2.6-8.3c-1.7-2.1-4.3-3.1-7.8-3.1h-5.8v21h5.9V306.9z"/>
		<path class="st1" d="M115.1,308.4v2.9H99.2v-2.9h3.3l-2.5-6.5H86.2l-2.3,6.5h3.7v2.9H76.5v-2.9h3.4l12.6-34h5.4l14.3,34H115.1z
			 M98.7,298.7l-5.9-15.3l-5.4,15.3H98.7z"/>
		<path class="st1" d="M146.2,302.9c0.7,1.2,1.4,2.2,2,3c0.6,0.8,1.1,1.4,1.6,1.8c0.5,0.5,1,0.8,1.5,1c0.5,0.2,1,0.3,1.6,0.3v2.9
			c-2.2,0-4.1-0.2-5.7-0.5c-1.6-0.3-3.1-0.8-4.4-1.5c-1.3-0.7-2.5-1.6-3.6-2.8c-1.1-1.2-2.2-2.6-3.3-4.4l-4.6-7.3h-2.4v13h2.4v2.9
			h-14.8v-2.9h3.2v-31.1h-3.2v-2.9h17.1c2.4,0,4.5,0.2,6.3,0.7c1.9,0.5,3.4,1.2,4.7,2.1c1.3,0.9,2.3,2,3,3.2c0.7,1.2,1,2.6,1,4.1
			c0,2.4-0.7,4.4-2,6s-3.2,2.9-5.7,3.7L146.2,302.9z M128.9,292.4h3.1c2.1,0,3.8-0.7,5-2.1c1.3-1.4,1.9-3.4,1.9-6c0-2-0.6-3.6-1.8-5
			c-1.2-1.4-2.8-2-4.9-2h-3.4L128.9,292.4L128.9,292.4z"/>
	</g>
	<g>
		<path class="st0" d="M184.2,306.9h4.5V263h-4.5v-4.4h40.4v19.5h-2.5c-0.8-2.5-1.5-4.7-2.3-6.6c-0.7-1.9-1.5-3.5-2.4-4.7
			c-0.9-1.2-1.9-2.2-3-2.8c-1.1-0.6-2.5-0.9-4.1-0.9h-8.5v20.1h10.6V276h4v18.5h-4v-7.2h-10.6v19.6h8.7c3.3,0,6.1-1.2,8.5-3.7
			c2.3-2.5,4.3-6.3,5.9-11.3h2.5l-2.1,19.5h-41.2v-4.5H184.2z"/>
		<path class="st0" d="M232,308.2h3.2v-30.7H232v-3.1h15.6v3.1h-3.1v30.8h3.9c1.9,0,3.5-0.3,4.8-0.9s2.3-1.4,3.1-2.5
			c0.8-1,1.5-2.2,2.1-3.6c0.6-1.4,1.1-2.9,1.6-4.4h1.7l-1.5,14.6H232L232,308.2L232,308.2z"/>
		<path class="st0" d="M343.4,307.1v4.2h-22.8v-4.2h4.8l-3.9-42.5l-12.4,46.7h-9.4l-12.9-47l-3.3,42.8h4.5v4.2h-13.9v-4.2h4.5
			l3.4-44.4h-4.5v-4.2h25.7v4.2h-4.8l9.2,36.2l9.4-36.2h-4.9v-4.2h26.6v4.2h-4.5l4.7,44.4H343.4z"/>
		<path class="st0" d="M346.7,308.2h3.2v-30.7h-3.2v-3.1H375V288h-1.7c-0.6-1.8-1.1-3.3-1.6-4.6c-0.5-1.3-1.1-2.4-1.7-3.3
			c-0.6-0.9-1.3-1.5-2.1-2c-0.8-0.4-1.7-0.7-2.8-0.7h-5.9v14.1h7.4v-5h2.8v13h-2.8v-5h-7.4v13.7h6.1c2.3,0,4.3-0.9,5.9-2.6
			c1.6-1.7,3-4.4,4.1-7.9h1.7l-1.5,13.6h-28.8V308.2z"/>
		<path class="st0" d="M410.5,302.8c0.7,1.2,1.4,2.2,2,3c0.6,0.8,1.1,1.4,1.6,1.8c0.5,0.5,1,0.8,1.5,1c0.5,0.2,1,0.3,1.6,0.3v2.9
			c-2.2,0-4.1-0.2-5.7-0.5c-1.6-0.3-3.1-0.8-4.4-1.5c-1.3-0.7-2.5-1.6-3.6-2.8c-1.1-1.2-2.2-2.6-3.3-4.4l-4.6-7.3h-2.4v13h2.4v2.9
			h-14.8v-2.9h3.2v-31.1h-3.2v-2.9h17.1c2.4,0,4.5,0.2,6.3,0.7c1.9,0.5,3.4,1.2,4.7,2.1c1.3,0.9,2.3,2,3,3.2c0.7,1.2,1,2.6,1,4.1
			c0,2.4-0.7,4.4-2,6s-3.2,2.9-5.7,3.7L410.5,302.8z M393.2,292.4h3.1c2.1,0,3.8-0.7,5-2.1c1.3-1.4,1.9-3.4,1.9-6c0-2-0.6-3.6-1.8-5
			c-1.2-1.4-2.8-2-4.9-2h-3.4L393.2,292.4L393.2,292.4z"/>
		<path class="st0" d="M451.3,298.8c-0.2,1.1-0.7,2.3-1.3,3.8c-0.6,1.5-1.6,2.9-2.8,4.3c-1.2,1.4-2.9,2.5-4.8,3.5
			c-2,1-4.4,1.4-7.4,1.4c-0.8,0-1.7-0.1-2.9-0.4c-1.2-0.2-2.4-0.6-3.7-1.2c-1.3-0.6-2.6-1.3-3.9-2.3c-1.3-0.9-2.4-2.1-3.5-3.6
			c-1-1.4-1.9-3.2-2.5-5.2s-1-4.4-1-7c0-2.9,0.5-5.4,1.4-7.7c0.9-2.3,2.2-4.2,3.8-5.8c1.6-1.6,3.5-2.8,5.7-3.7s4.5-1.3,7-1.3
			c1.8,0,3.7,0.2,5.6,0.7s3.5,1.3,5,2.5l1.4-2.7h2l-2.1,15.9h-1.4c-1.4-4-3.1-7.1-5.3-9.5c-2.2-2.3-4.8-3.5-7.7-3.5
			c-2.5,0-4.4,0.9-5.9,2.7c-1.5,1.8-2.2,4.3-2.2,7.5c0,2.8,0.3,5.2,1,7.3s1.7,3.8,2.9,5.2c1.2,1.4,2.7,2.4,4.3,3.1
			c1.6,0.7,3.4,1,5.3,1c1.5,0,2.8-0.2,4-0.5c1.2-0.4,2.2-0.8,3.1-1.4s1.6-1.3,2.3-2c0.6-0.8,1.2-1.6,1.6-2.4L451.3,298.8z"/>
		<path class="st0" d="M489.3,308.4v2.9h-15.9v-2.9h3.3l-2.5-6.5h-13.8l-2.3,6.5h3.7v2.9h-11.1v-2.9h3.4l12.6-34h5.4l14.3,34H489.3z
			 M472.9,298.7l-5.9-15.3l-5.4,15.3H472.9z"/>
		<path class="st0" d="M490.7,308.2h3.2v-30.7h-3.2v-3.1h15.9c3.4,0,6.4,0.4,9,1.2c2.6,0.8,4.8,2,6.5,3.5c1.8,1.5,3.1,3.4,4,5.5
			c0.9,2.2,1.3,4.6,1.3,7.3c0,2.3-0.5,4.6-1.5,7c-1,2.3-2.4,4.4-4.2,6.2c-1.8,1.8-4,3.4-6.5,4.5c-2.5,1.2-5.3,1.7-8.4,1.7h-16.1
			V308.2z M505.5,308.2c2,0,3.9-0.4,5.4-1.2c1.6-0.8,2.9-1.8,3.9-3.2c1.1-1.4,1.9-2.9,2.4-4.8c0.5-1.8,0.8-3.7,0.8-5.8
			c0-2.3-0.3-4.4-0.8-6.3s-1.3-3.6-2.3-5s-2.3-2.5-3.8-3.3c-1.5-0.8-3.3-1.2-5.4-1.2h-2.6v30.8H505.5z"/>
		<path class="st0" d="M549.1,311.9c-2.1,0-4.2-0.4-6.4-1.2c-2.2-0.8-4.1-2-5.9-3.6c-1.8-1.6-3.2-3.6-4.4-6
			c-1.1-2.4-1.7-5.3-1.7-8.6c0-2.6,0.5-5,1.4-7.3c1-2.3,2.3-4.2,4-6c1.7-1.7,3.7-3,6-4c2.3-1,4.8-1.5,7.5-1.5c2.9,0,5.6,0.6,7.9,1.7
			s4.2,2.6,5.8,4.4c1.6,1.8,2.8,3.7,3.6,5.9c0.8,2.1,1.2,4.2,1.2,6.2c0,3-0.5,5.7-1.4,8.1c-1,2.4-2.3,4.5-4,6.3
			c-1.7,1.7-3.7,3.1-6.1,4C554.4,311.4,551.9,311.9,549.1,311.9z M552.2,308.2c2.3,0,4.1-0.9,5.4-2.7c1.3-1.8,1.9-4.2,1.9-7.1
			c0-2.5-0.3-4.9-1-7.4s-1.6-4.7-2.7-6.7c-1.1-2-2.5-3.6-4-4.9c-1.5-1.2-3.1-1.9-4.7-1.9c-1.3,0-2.4,0.3-3.4,0.8s-1.7,1.2-2.4,2.1
			c-0.6,0.9-1.1,1.9-1.4,3c-0.3,1.2-0.5,2.4-0.5,3.7c0,2.8,0.4,5.5,1.1,8c0.8,2.6,1.8,4.8,3,6.7s2.6,3.5,4.1,4.6
			C549.2,307.6,550.7,308.2,552.2,308.2z"/>
	</g>
</g>
</svg>
