<?xml version="1.0" encoding="utf-8"?>
<!-- Generator: Adobe Illustrator 25.2.1, SVG Export Plug-In . SVG Version: 6.00 Build 0)  -->
<svg version="1.1" id="Capa_1" xmlns="http://www.w3.org/2000/svg" xmlns:xlink="http://www.w3.org/1999/xlink" x="0px" y="0px"
	 viewBox="0 0 542.5 180.3" style="enable-background:new 0 0 542.5 180.3;" xml:space="preserve">
<style type="text/css">
	.st0{fill:#EBD800;}
	.st1{fill:#FFFFFF;}
</style>
<g>
	<path class="st0" d="M63.5,161.5v0.2h23.4v-0.2H63.5z M37.1,161.7h23.4v-0.2H37.1V161.7z"/>
	<path class="st0" d="M120,0H3.9C1.7,0,0,1.7,0,3.9v172.5c0,2.2,1.7,3.9,3.9,3.9H120c2.1,0,3.9-1.7,3.9-3.9V3.9
		C123.9,1.7,122.2,0,120,0z M37.1,125.7h2.1l0-7.6c0-5.3,4.3-9.6,9.6-9.6s9.6,4.3,9.6,9.6l0,7.6h2.1v36H37.1V125.7z M42.3,79.6
		c0-3,2.4-5.4,5.4-5.4c3,0,5.4,2.4,5.4,5.4c0,1.3-0.4,2.4-1.2,3.4v0.5l1.2,1.3v7.9H42.3v-7.9l1.2-1.3V83
		C42.8,82,42.3,80.9,42.3,79.6z M56.5,79.6c0-3,2.4-5.4,5.4-5.4c3,0,5.4,2.4,5.4,5.4c0,1.3-0.4,2.4-1.2,3.4v0.5l1.2,1.3v7.9H56.5
		v-7.9l1.2-1.3V83C57,82,56.5,80.9,56.5,79.6z M70.7,79.6c0-3,2.4-5.4,5.4-5.4c3,0,5.4,2.4,5.4,5.4c0,1.3-0.4,2.4-1.2,3.4v0.5
		l1.2,1.3v7.9H70.7v-7.9l1.2-1.3V83C71.2,82,70.7,80.9,70.7,79.6z M86.9,161.7H63.5v-36h2.1l0-7.6c0-5.3,4.3-9.6,9.6-9.6
		c5.3,0,9.6,4.3,9.6,9.6l0,7.6h2.1V161.7z M111.4,161.5H99.2l-3-36.9c-0.3-1.9-2.4-3.4-5.1-4v-7.5c3.4-6.3,5.1-13.9,5.1-22.2
		c0-8.7-1.9-18.9-8.4-26.3C78.1,53.7,62,47.2,62,47.2s-16.1,6.4-25.8,17.4c-6.5,7.3-8.4,17.5-8.4,26.3c0,8.3,1.7,15.9,5.1,22.2v7.5
		c-2.7,0.7-4.8,2.2-5.1,4l-3,36.9H12.5V18.8h98.9V161.5z"/>
</g>
<g>
	<path class="st1" d="M193.1,41.6c8.9,2.3,13.3,6.7,13.3,13.4c0,2-0.5,3.9-1.6,5.7c-1,1.8-2.5,3.3-4.3,4.7c-1.8,1.3-3.9,2.4-6.4,3.1
		c-2.5,0.8-5.1,1.2-7.9,1.2h-27.7v-4.4h4.6V21.4h-4.6V17h24.7c6.6,0,11.8,1,15.4,3.1c3.6,2.1,5.4,5.4,5.4,10c0,2.3-0.9,4.5-2.6,6.6
		C199.6,38.7,196.8,40.3,193.1,41.6z M176.1,39.9h5.6c3,0,5.4-0.8,7.2-2.3c1.9-1.5,2.8-3.8,2.8-6.7c0-2.7-0.9-4.9-2.7-6.7
		c-1.8-1.8-4.3-2.7-7.4-2.7h-5.6V39.9z M181.9,65.3c3.6,0,6.2-0.9,7.8-2.7c1.7-1.8,2.5-4.1,2.5-6.8c0-3.5-0.9-6.2-2.6-8.3
		c-1.7-2.1-4.3-3.1-7.8-3.1h-5.8v21H181.9z"/>
	<path class="st1" d="M246.7,66.8v2.9h-15.9v-2.9h3.3l-2.5-6.5h-13.8l-2.3,6.5h3.7v2.9h-11.1v-2.9h3.4l12.6-34h5.4l14.3,34H246.7z
		 M230.3,57.1l-5.9-15.3l-5.4,15.3H230.3z"/>
	<path class="st1" d="M277.8,61.3c0.7,1.2,1.4,2.2,2,3c0.6,0.8,1.1,1.4,1.6,1.8c0.5,0.5,1,0.8,1.5,1c0.5,0.2,1,0.3,1.6,0.3v2.9
		c-2.2,0-4.1-0.2-5.7-0.5c-1.6-0.3-3.1-0.8-4.4-1.5c-1.3-0.7-2.5-1.6-3.6-2.8c-1.1-1.2-2.2-2.6-3.3-4.4l-4.6-7.3h-2.4v13h2.4v2.9
		h-14.8v-2.9h3.2V35.7h-3.2v-2.9h17.1c2.4,0,4.5,0.2,6.3,0.7c1.9,0.5,3.4,1.2,4.7,2.1c1.3,0.9,2.3,2,3,3.2c0.7,1.2,1,2.6,1,4.1
		c0,2.4-0.7,4.4-2,6c-1.3,1.6-3.2,2.9-5.7,3.7L277.8,61.3z M260.5,50.8h3.1c2.1,0,3.8-0.7,5-2.1c1.3-1.4,1.9-3.4,1.9-6
		c0-2-0.6-3.6-1.8-5c-1.2-1.4-2.8-2-4.9-2h-3.4V50.8z"/>
	<path class="st0" d="M158.5,158.4h4.5v-43.9h-4.5v-4.4h40.4v19.5h-2.5c-0.8-2.5-1.5-4.7-2.3-6.6c-0.7-1.9-1.5-3.5-2.4-4.7
		c-0.9-1.2-1.9-2.2-3-2.8c-1.1-0.6-2.5-0.9-4.1-0.9h-8.5v20.1h10.6v-7.2h4V146h-4v-7.2h-10.6v19.6h8.7c3.3,0,6.1-1.2,8.5-3.7
		c2.3-2.5,4.3-6.3,5.9-11.3h2.5l-2.1,19.5h-41.2V158.4z"/>
	<path class="st0" d="M206.3,159.7h3.2V129h-3.2v-3.1h15.6v3.1h-3.1v30.8h3.9c1.9,0,3.5-0.3,4.8-0.9c1.3-0.6,2.3-1.4,3.1-2.5
		c0.8-1,1.5-2.2,2.1-3.6c0.6-1.4,1.1-2.9,1.6-4.4h1.7l-1.5,14.6h-28.2V159.7z"/>
	<path class="st0" d="M317.7,158.6v4.2h-22.8v-4.2h4.8l-3.9-42.5l-12.4,46.7H274l-12.9-47l-3.3,42.8h4.5v4.2h-13.9v-4.2h4.5
		l3.4-44.4h-4.5v-4.2h25.7v4.2h-4.8l9.2,36.2l9.4-36.2h-4.9v-4.2H313v4.2h-4.5l4.7,44.4H317.7z"/>
	<path class="st0" d="M321,159.7h3.2V129H321v-3.1h28.3v13.6h-1.7c-0.6-1.8-1.1-3.3-1.6-4.6c-0.5-1.3-1.1-2.4-1.7-3.3
		c-0.6-0.9-1.3-1.5-2.1-2c-0.8-0.4-1.7-0.7-2.8-0.7h-5.9V143h7.4V138h2.8v13h-2.8V146h-7.4v13.7h6.1c2.3,0,4.3-0.9,5.9-2.6
		c1.6-1.7,3-4.4,4.1-7.9h1.7l-1.5,13.6H321V159.7z"/>
	<path class="st0" d="M384.8,154.3c0.7,1.2,1.4,2.2,2,3c0.6,0.8,1.1,1.4,1.6,1.8c0.5,0.5,1,0.8,1.5,1c0.5,0.2,1,0.3,1.6,0.3v2.9
		c-2.2,0-4.1-0.2-5.7-0.5c-1.6-0.3-3.1-0.8-4.4-1.5c-1.3-0.7-2.5-1.6-3.6-2.8c-1.1-1.2-2.2-2.6-3.3-4.4l-4.6-7.3h-2.4v13h2.4v2.9
		h-14.8v-2.9h3.2v-31.1h-3.2v-2.9h17.1c2.4,0,4.5,0.2,6.3,0.7c1.9,0.5,3.4,1.2,4.7,2.1c1.3,0.9,2.3,2,3,3.2s1,2.6,1,4.1
		c0,2.4-0.7,4.4-2,6c-1.3,1.6-3.2,2.9-5.7,3.7L384.8,154.3z M367.5,143.9h3.1c2.1,0,3.8-0.7,5-2.1c1.3-1.4,1.9-3.4,1.9-6
		c0-2-0.6-3.6-1.8-5c-1.2-1.4-2.8-2-4.9-2h-3.4V143.9z"/>
	<path class="st0" d="M425.6,150.3c-0.2,1.1-0.7,2.3-1.3,3.8c-0.6,1.5-1.6,2.9-2.8,4.3c-1.2,1.4-2.9,2.5-4.8,3.5
		c-2,1-4.4,1.4-7.4,1.4c-0.8,0-1.7-0.1-2.9-0.4c-1.2-0.2-2.4-0.6-3.7-1.2c-1.3-0.6-2.6-1.3-3.9-2.3c-1.3-0.9-2.4-2.1-3.5-3.6
		c-1-1.4-1.9-3.2-2.5-5.2c-0.6-2-1-4.4-1-7c0-2.9,0.5-5.4,1.4-7.7c0.9-2.3,2.2-4.2,3.8-5.8c1.6-1.6,3.5-2.8,5.7-3.7
		c2.2-0.9,4.5-1.3,7-1.3c1.8,0,3.7,0.2,5.6,0.7c1.9,0.5,3.5,1.3,5,2.5l1.4-2.7h2l-2.1,15.9h-1.4c-1.4-4-3.1-7.1-5.3-9.5
		c-2.2-2.3-4.8-3.5-7.7-3.5c-2.5,0-4.4,0.9-5.9,2.7c-1.5,1.8-2.2,4.3-2.2,7.5c0,2.8,0.3,5.2,1,7.3c0.7,2.1,1.7,3.8,2.9,5.2
		c1.2,1.4,2.7,2.4,4.3,3.1c1.6,0.7,3.4,1,5.3,1c1.5,0,2.8-0.2,4-0.5c1.2-0.4,2.2-0.8,3.1-1.4c0.9-0.6,1.6-1.3,2.3-2
		c0.6-0.8,1.2-1.6,1.6-2.4L425.6,150.3z"/>
	<path class="st0" d="M463.6,159.9v2.9h-15.9v-2.9h3.3l-2.5-6.5h-13.8l-2.3,6.5h3.7v2.9h-11.1v-2.9h3.4l12.6-34h5.4l14.3,34H463.6z
		 M447.2,150.2l-5.9-15.3l-5.4,15.3H447.2z"/>
	<path class="st0" d="M465,159.7h3.2V129H465v-3.1h15.9c3.4,0,6.4,0.4,9,1.2c2.6,0.8,4.8,2,6.5,3.5c1.8,1.5,3.1,3.4,4,5.5
		c0.9,2.2,1.3,4.6,1.3,7.3c0,2.3-0.5,4.6-1.5,7c-1,2.3-2.4,4.4-4.2,6.2c-1.8,1.8-4,3.4-6.5,4.5c-2.5,1.2-5.3,1.7-8.4,1.7H465V159.7z
		 M479.8,159.7c2,0,3.9-0.4,5.4-1.2c1.6-0.8,2.9-1.8,3.9-3.2c1.1-1.4,1.9-2.9,2.4-4.8c0.5-1.8,0.8-3.7,0.8-5.8
		c0-2.3-0.3-4.4-0.8-6.3c-0.5-1.9-1.3-3.6-2.3-5c-1-1.4-2.3-2.5-3.8-3.3c-1.5-0.8-3.3-1.2-5.4-1.2h-2.6v30.8H479.8z"/>
	<path class="st0" d="M523.4,163.4c-2.1,0-4.2-0.4-6.4-1.2c-2.2-0.8-4.1-2-5.9-3.6c-1.8-1.6-3.2-3.6-4.4-6c-1.1-2.4-1.7-5.3-1.7-8.6
		c0-2.6,0.5-5,1.4-7.3c1-2.3,2.3-4.2,4-6c1.7-1.7,3.7-3,6-4c2.3-1,4.8-1.5,7.5-1.5c2.9,0,5.6,0.6,7.9,1.7s4.2,2.6,5.8,4.4
		c1.6,1.8,2.8,3.7,3.6,5.9c0.8,2.1,1.2,4.2,1.2,6.2c0,3-0.5,5.7-1.4,8.1c-1,2.4-2.3,4.5-4,6.3c-1.7,1.7-3.7,3.1-6.1,4
		C528.7,162.9,526.2,163.4,523.4,163.4z M526.5,159.7c2.3,0,4.1-0.9,5.4-2.7c1.3-1.8,1.9-4.2,1.9-7.1c0-2.5-0.3-4.9-1-7.4
		c-0.7-2.5-1.6-4.7-2.7-6.7c-1.1-2-2.5-3.6-4-4.9c-1.5-1.2-3.1-1.9-4.7-1.9c-1.3,0-2.4,0.3-3.4,0.8c-1,0.5-1.7,1.2-2.4,2.1
		c-0.6,0.9-1.1,1.9-1.4,3c-0.3,1.2-0.5,2.4-0.5,3.7c0,2.8,0.4,5.5,1.1,8c0.8,2.6,1.8,4.8,3,6.7c1.2,1.9,2.6,3.5,4.1,4.6
		C523.5,159.1,525,159.7,526.5,159.7z"/>
</g>
</svg>
